G04 #@! TF.GenerationSoftware,KiCad,Pcbnew,10.0.4*
G04 #@! TF.CreationDate,2026-07-17T14:34:13+02:00*
G04 #@! TF.ProjectId,lickshot_delay,6c69636b-7368-46f7-945f-64656c61792e,rev?*
G04 #@! TF.SameCoordinates,Original*
G04 #@! TF.FileFunction,Soldermask,Top*
G04 #@! TF.FilePolarity,Negative*
%FSLAX46Y46*%
G04 Gerber Fmt 4.6, Leading zero omitted, Abs format (unit mm)*
G04 Created by KiCad (PCBNEW 10.0.4) date 2026-07-17 14:34:13*
%MOMM*%
%LPD*%
G01*
G04 APERTURE LIST*
G04 Aperture macros list*
%AMRoundRect*
0 Rectangle with rounded corners*
0 $1 Rounding radius*
0 $2 $3 $4 $5 $6 $7 $8 $9 X,Y pos of 4 corners*
0 Add a 4 corners polygon primitive as box body*
4,1,4,$2,$3,$4,$5,$6,$7,$8,$9,$2,$3,0*
0 Add four circle primitives for the rounded corners*
1,1,$1+$1,$2,$3*
1,1,$1+$1,$4,$5*
1,1,$1+$1,$6,$7*
1,1,$1+$1,$8,$9*
0 Add four rect primitives between the rounded corners*
20,1,$1+$1,$2,$3,$4,$5,0*
20,1,$1+$1,$4,$5,$6,$7,0*
20,1,$1+$1,$6,$7,$8,$9,0*
20,1,$1+$1,$8,$9,$2,$3,0*%
G04 Aperture macros list end*
%ADD10R,1.800000X1.800000*%
%ADD11C,1.800000*%
%ADD12C,1.600000*%
%ADD13R,2.000000X1.905000*%
%ADD14O,2.000000X1.905000*%
%ADD15R,1.600000X1.600000*%
%ADD16O,1.600000X1.600000*%
%ADD17C,1.400000*%
%ADD18O,1.400000X1.400000*%
%ADD19RoundRect,0.250000X-0.825000X-0.825000X0.825000X-0.825000X0.825000X0.825000X-0.825000X0.825000X0*%
%ADD20C,2.150000*%
%ADD21RoundRect,0.250000X0.825000X0.825000X-0.825000X0.825000X-0.825000X-0.825000X0.825000X-0.825000X0*%
%ADD22RoundRect,0.250000X-0.550000X-0.550000X0.550000X-0.550000X0.550000X0.550000X-0.550000X0.550000X0*%
%ADD23RoundRect,0.250000X0.825000X-0.825000X0.825000X0.825000X-0.825000X0.825000X-0.825000X-0.825000X0*%
%ADD24R,1.050000X1.500000*%
%ADD25O,1.050000X1.500000*%
%ADD26C,2.340000*%
G04 APERTURE END LIST*
D10*
X100330000Y-78740000D03*
D11*
X100330000Y-76200000D03*
D12*
X170175000Y-73660000D03*
X175175000Y-73660000D03*
D13*
X129535000Y-91440000D03*
D14*
X129535000Y-88900000D03*
X129535000Y-86360000D03*
D15*
X126995000Y-73660000D03*
D16*
X126995000Y-81280000D03*
D15*
X134615000Y-77430000D03*
D12*
X134615000Y-74930000D03*
D15*
X139700000Y-99020000D03*
D12*
X139700000Y-96520000D03*
X160015000Y-91440000D03*
X165015000Y-91440000D03*
D17*
X133345000Y-111760000D03*
D18*
X140965000Y-111760000D03*
D19*
X98750000Y-113030000D03*
D20*
X103350000Y-113030000D03*
X107950000Y-113030000D03*
D17*
X166325000Y-95250000D03*
D18*
X158705000Y-95250000D03*
D17*
X158705000Y-78740000D03*
D18*
X166325000Y-78740000D03*
D21*
X119380000Y-77470000D03*
D20*
X114780000Y-77470000D03*
D19*
X145735000Y-97790000D03*
D20*
X150335000Y-97790000D03*
X154935000Y-97790000D03*
D17*
X154940000Y-121920000D03*
D18*
X147320000Y-121920000D03*
D17*
X99060000Y-104140000D03*
D18*
X106680000Y-104140000D03*
D12*
X165015000Y-87630000D03*
X160015000Y-87630000D03*
D15*
X160015000Y-101560000D03*
D12*
X160015000Y-99060000D03*
X116800000Y-108480000D03*
X111800000Y-108480000D03*
D17*
X140970000Y-119380000D03*
D18*
X133350000Y-119380000D03*
D15*
X95240000Y-104140000D03*
D16*
X95240000Y-101600000D03*
X95240000Y-99060000D03*
X95240000Y-96520000D03*
X95240000Y-93980000D03*
X95240000Y-91440000D03*
X95240000Y-88900000D03*
X87620000Y-88900000D03*
X87620000Y-91440000D03*
X87620000Y-93980000D03*
X87620000Y-96520000D03*
X87620000Y-99060000D03*
X87620000Y-101600000D03*
X87620000Y-104140000D03*
D15*
X166365000Y-101560000D03*
D12*
X166365000Y-99060000D03*
D17*
X99060000Y-101600000D03*
D18*
X106680000Y-101600000D03*
D17*
X99060000Y-99060000D03*
D18*
X106680000Y-99060000D03*
D21*
X170970000Y-68580000D03*
D20*
X166370000Y-68580000D03*
X161770000Y-68580000D03*
D17*
X158705000Y-81280000D03*
D18*
X166325000Y-81280000D03*
D12*
X175175000Y-81280000D03*
X170175000Y-81280000D03*
X175175000Y-85090000D03*
X170175000Y-85090000D03*
D17*
X168865000Y-95250000D03*
D18*
X176485000Y-95250000D03*
D17*
X166365000Y-106680000D03*
D18*
X158745000Y-106680000D03*
D12*
X148683804Y-102125147D03*
X153683804Y-102125147D03*
D17*
X129535000Y-73660000D03*
D18*
X129535000Y-81280000D03*
D15*
X172715000Y-101560000D03*
D12*
X172715000Y-99060000D03*
X160055000Y-115570000D03*
X165055000Y-115570000D03*
D22*
X147315000Y-109220000D03*
D12*
X147315000Y-111760000D03*
X147315000Y-114300000D03*
X147315000Y-116840000D03*
X154935000Y-116840000D03*
X154935000Y-114300000D03*
X154935000Y-111760000D03*
X154935000Y-109220000D03*
D17*
X147315000Y-124460000D03*
D18*
X154935000Y-124460000D03*
D17*
X179070000Y-83820000D03*
D18*
X179070000Y-76200000D03*
D12*
X170175000Y-91440000D03*
X175175000Y-91440000D03*
X134655000Y-90170000D03*
X139655000Y-90170000D03*
D17*
X106675000Y-91440000D03*
D18*
X99055000Y-91440000D03*
D17*
X106680000Y-109220000D03*
D18*
X99060000Y-109220000D03*
D17*
X140970000Y-116840000D03*
D18*
X133350000Y-116840000D03*
D17*
X129540000Y-106680000D03*
D18*
X121920000Y-106680000D03*
D23*
X179070000Y-103900000D03*
D20*
X179070000Y-99300000D03*
D12*
X134655000Y-86360000D03*
X139655000Y-86360000D03*
D17*
X99060000Y-93980000D03*
D18*
X106680000Y-93980000D03*
D15*
X127000000Y-96520000D03*
D12*
X127000000Y-99020000D03*
X153630000Y-69850000D03*
X148630000Y-69850000D03*
D17*
X166365000Y-109220000D03*
D18*
X158745000Y-109220000D03*
D17*
X168911122Y-88267825D03*
D18*
X176531122Y-88267825D03*
D17*
X133345000Y-81280000D03*
D18*
X140965000Y-81280000D03*
D17*
X121920000Y-104140000D03*
D18*
X129540000Y-104140000D03*
D15*
X99060000Y-116840000D03*
D16*
X99060000Y-124460000D03*
D12*
X170175000Y-77470000D03*
X175175000Y-77470000D03*
D21*
X122710000Y-68580000D03*
D20*
X118110000Y-68580000D03*
X113510000Y-68580000D03*
D17*
X140970000Y-114300000D03*
D18*
X133350000Y-114300000D03*
D17*
X129540000Y-109220000D03*
D18*
X121920000Y-109220000D03*
D21*
X127790000Y-113030000D03*
D20*
X123190000Y-113030000D03*
X118590000Y-113030000D03*
D17*
X166325000Y-73660000D03*
D18*
X158705000Y-73660000D03*
D17*
X166365000Y-111760000D03*
D18*
X158745000Y-111760000D03*
D22*
X147320000Y-73660000D03*
D12*
X147320000Y-76200000D03*
X147320000Y-78740000D03*
X147320000Y-81280000D03*
X147320000Y-83820000D03*
X147320000Y-86360000D03*
X147320000Y-88900000D03*
X147320000Y-91440000D03*
X154940000Y-91440000D03*
X154940000Y-88900000D03*
X154940000Y-86360000D03*
X154940000Y-83820000D03*
X154940000Y-81280000D03*
X154940000Y-78740000D03*
X154940000Y-76200000D03*
X154940000Y-73660000D03*
D17*
X166325000Y-76200000D03*
D18*
X158705000Y-76200000D03*
D15*
X115570000Y-118110000D03*
D12*
X113070000Y-118110000D03*
D15*
X140965000Y-74970000D03*
D12*
X140965000Y-77470000D03*
D15*
X133350000Y-96560000D03*
D12*
X133350000Y-99060000D03*
D17*
X99060000Y-106680000D03*
D18*
X106680000Y-106680000D03*
D12*
X91440000Y-114260000D03*
X91440000Y-109260000D03*
D15*
X107950000Y-124460000D03*
D16*
X107950000Y-116840000D03*
D17*
X158705000Y-83820000D03*
D18*
X166325000Y-83820000D03*
D24*
X99050000Y-83820000D03*
D25*
X100320000Y-83820000D03*
X101590000Y-83820000D03*
D21*
X141280000Y-68580000D03*
D20*
X136680000Y-68580000D03*
X132080000Y-68580000D03*
D17*
X106675000Y-88900000D03*
D18*
X99055000Y-88900000D03*
D17*
X99055000Y-96520000D03*
D18*
X106675000Y-96520000D03*
D12*
X139655000Y-107950000D03*
X134655000Y-107950000D03*
D19*
X122160000Y-120650000D03*
D20*
X126760000Y-120650000D03*
D26*
X177910000Y-119220000D03*
X175410000Y-109220000D03*
X172910000Y-119220000D03*
D22*
X110495000Y-85090000D03*
D12*
X110495000Y-87630000D03*
X110495000Y-90170000D03*
X110495000Y-92710000D03*
X110495000Y-95250000D03*
X110495000Y-97790000D03*
X110495000Y-100330000D03*
X110495000Y-102870000D03*
X118115000Y-102870000D03*
X118115000Y-100330000D03*
X118115000Y-97790000D03*
X118115000Y-95250000D03*
X118115000Y-92710000D03*
X118115000Y-90170000D03*
X118115000Y-87630000D03*
X118115000Y-85090000D03*
D19*
X94940000Y-68580000D03*
D20*
X99540000Y-68580000D03*
X104140000Y-68580000D03*
D12*
X134660000Y-123190000D03*
X139660000Y-123190000D03*
M02*
