M48
; DRILL file KiCad 10.0.4 date 2026-07-17T14:32:45
; FORMAT={-:-/ absolute / metric / decimal}
; #@! TF.CreationDate,2026-07-17T14:32:45+02:00
; #@! TF.GenerationSoftware,Kicad,Pcbnew,10.0.4
; #@! TF.FileFunction,Plated,1,2,PTH
FMAT,2
METRIC
; #@! TA.AperFunction,Plated,PTH,ViaDrill
T1C0.300
; #@! TA.AperFunction,Plated,PTH,ComponentDrill
T2C0.700
; #@! TA.AperFunction,Plated,PTH,ComponentDrill
T3C0.750
; #@! TA.AperFunction,Plated,PTH,ComponentDrill
T4C0.800
; #@! TA.AperFunction,Plated,PTH,ComponentDrill
T5C0.900
; #@! TA.AperFunction,Plated,PTH,ComponentDrill
T6C1.100
; #@! TA.AperFunction,Plated,PTH,ComponentDrill
T7C1.150
; #@! TA.AperFunction,Plated,PTH,ComponentDrill
T8C1.300
%
G90
G05
T1
X96.52Y-87.63
X100.33Y-87.63
X107.95Y-102.87
X113.03Y-102.87
X127.0Y-88.9
T2
X99.055Y-88.9
X99.055Y-91.44
X99.055Y-96.52
X99.06Y-93.98
X99.06Y-99.06
X99.06Y-101.6
X99.06Y-104.14
X99.06Y-106.68
X99.06Y-109.22
X106.675Y-88.9
X106.675Y-91.44
X106.675Y-96.52
X106.68Y-93.98
X106.68Y-99.06
X106.68Y-101.6
X106.68Y-104.14
X106.68Y-106.68
X106.68Y-109.22
X121.92Y-104.14
X121.92Y-106.68
X121.92Y-109.22
X129.535Y-73.66
X129.535Y-81.28
X129.54Y-104.14
X129.54Y-106.68
X129.54Y-109.22
X133.345Y-81.28
X133.345Y-111.76
X133.35Y-114.3
X133.35Y-116.84
X133.35Y-119.38
X140.965Y-81.28
X140.965Y-111.76
X140.97Y-114.3
X140.97Y-116.84
X140.97Y-119.38
X147.315Y-124.46
X147.32Y-121.92
X154.935Y-124.46
X154.94Y-121.92
X158.705Y-73.66
X158.705Y-76.2
X158.705Y-78.74
X158.705Y-81.28
X158.705Y-83.82
X158.705Y-95.25
X158.745Y-106.68
X158.745Y-109.22
X158.745Y-111.76
X166.325Y-73.66
X166.325Y-76.2
X166.325Y-78.74
X166.325Y-81.28
X166.325Y-83.82
X166.325Y-95.25
X166.365Y-106.68
X166.365Y-109.22
X166.365Y-111.76
X168.865Y-95.25
X168.911Y-88.268
X176.485Y-95.25
X176.531Y-88.268
X179.07Y-76.2
X179.07Y-83.82
T3
X99.05Y-83.82
X100.32Y-83.82
X101.59Y-83.82
T4
X87.62Y-88.9
X87.62Y-91.44
X87.62Y-93.98
X87.62Y-96.52
X87.62Y-99.06
X87.62Y-101.6
X87.62Y-104.14
X91.44Y-109.26
X91.44Y-114.26
X95.24Y-88.9
X95.24Y-91.44
X95.24Y-93.98
X95.24Y-96.52
X95.24Y-99.06
X95.24Y-101.6
X95.24Y-104.14
X99.06Y-116.84
X99.06Y-124.46
X107.95Y-116.84
X107.95Y-124.46
X110.495Y-85.09
X110.495Y-87.63
X110.495Y-90.17
X110.495Y-92.71
X110.495Y-95.25
X110.495Y-97.79
X110.495Y-100.33
X110.495Y-102.87
X111.8Y-108.48
X113.07Y-118.11
X115.57Y-118.11
X116.8Y-108.48
X118.115Y-85.09
X118.115Y-87.63
X118.115Y-90.17
X118.115Y-92.71
X118.115Y-95.25
X118.115Y-97.79
X118.115Y-100.33
X118.115Y-102.87
X126.995Y-73.66
X126.995Y-81.28
X127.0Y-96.52
X127.0Y-99.02
X133.35Y-96.56
X133.35Y-99.06
X134.615Y-74.93
X134.615Y-77.43
X134.655Y-86.36
X134.655Y-90.17
X134.655Y-107.95
X134.66Y-123.19
X139.655Y-86.36
X139.655Y-90.17
X139.655Y-107.95
X139.66Y-123.19
X139.7Y-96.52
X139.7Y-99.02
X140.965Y-74.97
X140.965Y-77.47
X147.315Y-109.22
X147.315Y-111.76
X147.315Y-114.3
X147.315Y-116.84
X147.32Y-73.66
X147.32Y-76.2
X147.32Y-78.74
X147.32Y-81.28
X147.32Y-83.82
X147.32Y-86.36
X147.32Y-88.9
X147.32Y-91.44
X148.63Y-69.85
X148.684Y-102.125
X153.63Y-69.85
X153.684Y-102.125
X154.935Y-109.22
X154.935Y-111.76
X154.935Y-114.3
X154.935Y-116.84
X154.94Y-73.66
X154.94Y-76.2
X154.94Y-78.74
X154.94Y-81.28
X154.94Y-83.82
X154.94Y-86.36
X154.94Y-88.9
X154.94Y-91.44
X160.015Y-87.63
X160.015Y-91.44
X160.015Y-99.06
X160.015Y-101.56
X160.055Y-115.57
X165.015Y-87.63
X165.015Y-91.44
X165.055Y-115.57
X166.365Y-99.06
X166.365Y-101.56
X170.175Y-73.66
X170.175Y-77.47
X170.175Y-81.28
X170.175Y-85.09
X170.175Y-91.44
X172.715Y-99.06
X172.715Y-101.56
X175.175Y-73.66
X175.175Y-77.47
X175.175Y-81.28
X175.175Y-85.09
X175.175Y-91.44
T5
X100.33Y-76.2
X100.33Y-78.74
T6
X129.535Y-86.36
X129.535Y-88.9
X129.535Y-91.44
T7
X94.94Y-68.58
X98.75Y-113.03
X99.54Y-68.58
X103.35Y-113.03
X104.14Y-68.58
X107.95Y-113.03
X113.51Y-68.58
X114.78Y-77.47
X118.11Y-68.58
X118.59Y-113.03
X119.38Y-77.47
X122.16Y-120.65
X122.71Y-68.58
X123.19Y-113.03
X126.76Y-120.65
X127.79Y-113.03
X132.08Y-68.58
X136.68Y-68.58
X141.28Y-68.58
X145.735Y-97.79
X150.335Y-97.79
X154.935Y-97.79
X161.77Y-68.58
X166.37Y-68.58
X170.97Y-68.58
X179.07Y-99.3
X179.07Y-103.9
T8
X172.91Y-119.22
X175.41Y-109.22
X177.91Y-119.22
M30
